<mxfile host="app.diagrams.net" modified="2021-04-14T22:37:32.846Z" agent="5.0 (Windows NT 10.0; Win64; x64) AppleWebKit/537.36 (KHTML, like Gecko) Chrome/89.0.4389.128 Safari/537.36" etag="crWFAoWjHWramgz7CdBx" version="14.5.8" type="github">
  <diagram id="RLCDxYejcyHzInnDxHIz" name="Page-1">
    <mxGraphModel dx="1185" dy="667" grid="1" gridSize="10" guides="1" tooltips="1" connect="1" arrows="1" fold="1" page="1" pageScale="1" pageWidth="2339" pageHeight="3300" math="0" shadow="0">
      <root>
        <mxCell id="0" />
        <mxCell id="1" parent="0" />
        <mxCell id="M4OL5w7zwPGJeYNhAJbC-3" value="Squish.Mallow" style="shape=table;startSize=30;container=1;collapsible=1;childLayout=tableLayout;fixedRows=1;rowLines=0;fontStyle=1;align=center;resizeLast=1;" vertex="1" parent="1">
          <mxGeometry x="1020" y="1410" width="190" height="180" as="geometry" />
        </mxCell>
        <mxCell id="M4OL5w7zwPGJeYNhAJbC-4" value="" style="shape=partialRectangle;collapsible=0;dropTarget=0;pointerEvents=0;fillColor=none;top=0;left=0;bottom=1;right=0;points=[[0,0.5],[1,0.5]];portConstraint=eastwest;" vertex="1" parent="M4OL5w7zwPGJeYNhAJbC-3">
          <mxGeometry y="30" width="190" height="30" as="geometry" />
        </mxCell>
        <mxCell id="M4OL5w7zwPGJeYNhAJbC-5" value="PK" style="shape=partialRectangle;connectable=0;fillColor=none;top=0;left=0;bottom=0;right=0;fontStyle=1;overflow=hidden;" vertex="1" parent="M4OL5w7zwPGJeYNhAJbC-4">
          <mxGeometry width="30" height="30" as="geometry" />
        </mxCell>
        <mxCell id="M4OL5w7zwPGJeYNhAJbC-6" value="Squish ID" style="shape=partialRectangle;connectable=0;fillColor=none;top=0;left=0;bottom=0;right=0;align=left;spacingLeft=6;fontStyle=5;overflow=hidden;strokeColor=none;" vertex="1" parent="M4OL5w7zwPGJeYNhAJbC-4">
          <mxGeometry x="30" width="160" height="30" as="geometry" />
        </mxCell>
        <mxCell id="M4OL5w7zwPGJeYNhAJbC-7" value="" style="shape=partialRectangle;collapsible=0;dropTarget=0;pointerEvents=0;fillColor=none;top=0;left=0;bottom=0;right=0;points=[[0,0.5],[1,0.5]];portConstraint=eastwest;" vertex="1" parent="M4OL5w7zwPGJeYNhAJbC-3">
          <mxGeometry y="60" width="190" height="30" as="geometry" />
        </mxCell>
        <mxCell id="M4OL5w7zwPGJeYNhAJbC-8" value="" style="shape=partialRectangle;connectable=0;fillColor=none;top=0;left=0;bottom=0;right=0;editable=1;overflow=hidden;" vertex="1" parent="M4OL5w7zwPGJeYNhAJbC-7">
          <mxGeometry width="30" height="30" as="geometry" />
        </mxCell>
        <mxCell id="M4OL5w7zwPGJeYNhAJbC-9" value="Squish Name" style="shape=partialRectangle;connectable=0;fillColor=none;top=0;left=0;bottom=0;right=0;align=left;spacingLeft=6;overflow=hidden;" vertex="1" parent="M4OL5w7zwPGJeYNhAJbC-7">
          <mxGeometry x="30" width="160" height="30" as="geometry" />
        </mxCell>
        <mxCell id="M4OL5w7zwPGJeYNhAJbC-10" value="" style="shape=partialRectangle;collapsible=0;dropTarget=0;pointerEvents=0;fillColor=none;top=0;left=0;bottom=0;right=0;points=[[0,0.5],[1,0.5]];portConstraint=eastwest;" vertex="1" parent="M4OL5w7zwPGJeYNhAJbC-3">
          <mxGeometry y="90" width="190" height="30" as="geometry" />
        </mxCell>
        <mxCell id="M4OL5w7zwPGJeYNhAJbC-11" value="" style="shape=partialRectangle;connectable=0;fillColor=none;top=0;left=0;bottom=0;right=0;editable=1;overflow=hidden;" vertex="1" parent="M4OL5w7zwPGJeYNhAJbC-10">
          <mxGeometry width="30" height="30" as="geometry" />
        </mxCell>
        <mxCell id="M4OL5w7zwPGJeYNhAJbC-12" value="Color" style="shape=partialRectangle;connectable=0;fillColor=none;top=0;left=0;bottom=0;right=0;align=left;spacingLeft=6;overflow=hidden;" vertex="1" parent="M4OL5w7zwPGJeYNhAJbC-10">
          <mxGeometry x="30" width="160" height="30" as="geometry" />
        </mxCell>
        <mxCell id="M4OL5w7zwPGJeYNhAJbC-13" value="" style="shape=partialRectangle;collapsible=0;dropTarget=0;pointerEvents=0;fillColor=none;top=0;left=0;bottom=0;right=0;points=[[0,0.5],[1,0.5]];portConstraint=eastwest;" vertex="1" parent="M4OL5w7zwPGJeYNhAJbC-3">
          <mxGeometry y="120" width="190" height="30" as="geometry" />
        </mxCell>
        <mxCell id="M4OL5w7zwPGJeYNhAJbC-14" value="" style="shape=partialRectangle;connectable=0;fillColor=none;top=0;left=0;bottom=0;right=0;editable=1;overflow=hidden;" vertex="1" parent="M4OL5w7zwPGJeYNhAJbC-13">
          <mxGeometry width="30" height="30" as="geometry" />
        </mxCell>
        <mxCell id="M4OL5w7zwPGJeYNhAJbC-15" value="Description" style="shape=partialRectangle;connectable=0;fillColor=none;top=0;left=0;bottom=0;right=0;align=left;spacingLeft=6;overflow=hidden;" vertex="1" parent="M4OL5w7zwPGJeYNhAJbC-13">
          <mxGeometry x="30" width="160" height="30" as="geometry" />
        </mxCell>
        <mxCell id="M4OL5w7zwPGJeYNhAJbC-24" value="" style="shape=partialRectangle;collapsible=0;dropTarget=0;pointerEvents=0;fillColor=none;top=0;left=0;bottom=0;right=0;points=[[0,0.5],[1,0.5]];portConstraint=eastwest;" vertex="1" parent="M4OL5w7zwPGJeYNhAJbC-3">
          <mxGeometry y="150" width="190" height="30" as="geometry" />
        </mxCell>
        <mxCell id="M4OL5w7zwPGJeYNhAJbC-25" value="" style="shape=partialRectangle;connectable=0;fillColor=none;top=0;left=0;bottom=0;right=0;editable=1;overflow=hidden;" vertex="1" parent="M4OL5w7zwPGJeYNhAJbC-24">
          <mxGeometry width="30" height="30" as="geometry" />
        </mxCell>
        <mxCell id="M4OL5w7zwPGJeYNhAJbC-26" value="Size" style="shape=partialRectangle;connectable=0;fillColor=none;top=0;left=0;bottom=0;right=0;align=left;spacingLeft=6;overflow=hidden;" vertex="1" parent="M4OL5w7zwPGJeYNhAJbC-24">
          <mxGeometry x="30" width="160" height="30" as="geometry" />
        </mxCell>
        <mxCell id="M4OL5w7zwPGJeYNhAJbC-27" value="Customer" style="shape=table;startSize=30;container=1;collapsible=1;childLayout=tableLayout;fixedRows=1;rowLines=0;fontStyle=1;align=center;resizeLast=1;strokeColor=#000000;" vertex="1" parent="1">
          <mxGeometry x="740" y="1280" width="170" height="270" as="geometry" />
        </mxCell>
        <mxCell id="M4OL5w7zwPGJeYNhAJbC-28" value="" style="shape=partialRectangle;collapsible=0;dropTarget=0;pointerEvents=0;fillColor=none;top=0;left=0;bottom=1;right=0;points=[[0,0.5],[1,0.5]];portConstraint=eastwest;" vertex="1" parent="M4OL5w7zwPGJeYNhAJbC-27">
          <mxGeometry y="30" width="170" height="30" as="geometry" />
        </mxCell>
        <mxCell id="M4OL5w7zwPGJeYNhAJbC-29" value="PK" style="shape=partialRectangle;connectable=0;fillColor=none;top=0;left=0;bottom=0;right=0;fontStyle=1;overflow=hidden;" vertex="1" parent="M4OL5w7zwPGJeYNhAJbC-28">
          <mxGeometry width="30" height="30" as="geometry" />
        </mxCell>
        <mxCell id="M4OL5w7zwPGJeYNhAJbC-30" value="Constomer ID" style="shape=partialRectangle;connectable=0;fillColor=none;top=0;left=0;bottom=0;right=0;align=left;spacingLeft=6;fontStyle=5;overflow=hidden;" vertex="1" parent="M4OL5w7zwPGJeYNhAJbC-28">
          <mxGeometry x="30" width="140" height="30" as="geometry" />
        </mxCell>
        <mxCell id="M4OL5w7zwPGJeYNhAJbC-31" value="" style="shape=partialRectangle;collapsible=0;dropTarget=0;pointerEvents=0;fillColor=none;top=0;left=0;bottom=0;right=0;points=[[0,0.5],[1,0.5]];portConstraint=eastwest;" vertex="1" parent="M4OL5w7zwPGJeYNhAJbC-27">
          <mxGeometry y="60" width="170" height="30" as="geometry" />
        </mxCell>
        <mxCell id="M4OL5w7zwPGJeYNhAJbC-32" value="" style="shape=partialRectangle;connectable=0;fillColor=none;top=0;left=0;bottom=0;right=0;editable=1;overflow=hidden;" vertex="1" parent="M4OL5w7zwPGJeYNhAJbC-31">
          <mxGeometry width="30" height="30" as="geometry" />
        </mxCell>
        <mxCell id="M4OL5w7zwPGJeYNhAJbC-33" value="Name&#xa;(First and Last)" style="shape=partialRectangle;connectable=0;fillColor=none;top=0;left=0;bottom=0;right=0;align=left;spacingLeft=6;overflow=hidden;" vertex="1" parent="M4OL5w7zwPGJeYNhAJbC-31">
          <mxGeometry x="30" width="140" height="30" as="geometry" />
        </mxCell>
        <mxCell id="M4OL5w7zwPGJeYNhAJbC-34" value="" style="shape=partialRectangle;collapsible=0;dropTarget=0;pointerEvents=0;fillColor=none;top=0;left=0;bottom=0;right=0;points=[[0,0.5],[1,0.5]];portConstraint=eastwest;" vertex="1" parent="M4OL5w7zwPGJeYNhAJbC-27">
          <mxGeometry y="90" width="170" height="30" as="geometry" />
        </mxCell>
        <mxCell id="M4OL5w7zwPGJeYNhAJbC-35" value="&#xa;&#xa;&#xa;&#xa;&#xa;&#xa;&#xa;&#xa;&#xa;&#xa;&#xa;&#xa;&#xa;&#xa;&#xa;&#xa;&#xa;&#xa;&#xa;&lt;p class=&quot;MsoListParagraph&quot; style=&quot;margin-left: 108.0pt ; text-indent: -18.0pt&quot;&gt;&amp;lt;![if !supportLists]&amp;gt;&lt;span style=&quot;font-family: &amp;quot;courier new&amp;quot;&quot;&gt;&lt;span&gt;o&lt;span style=&quot;font: 7.0pt &amp;quot;times new roman&amp;quot;&quot;&gt;&amp;nbsp;&amp;nbsp;&#xa;&lt;/span&gt;&lt;/span&gt;&lt;/span&gt;&amp;lt;![endif]&amp;gt;Age&lt;/p&gt;&#xa;&#xa;&#xa;&#xa;&#xa;&#xa;" style="shape=partialRectangle;connectable=0;fillColor=none;top=0;left=0;bottom=0;right=0;editable=1;overflow=hidden;" vertex="1" parent="M4OL5w7zwPGJeYNhAJbC-34">
          <mxGeometry width="30" height="30" as="geometry" />
        </mxCell>
        <mxCell id="M4OL5w7zwPGJeYNhAJbC-36" value="Age" style="shape=partialRectangle;connectable=0;fillColor=none;top=0;left=0;bottom=0;right=0;align=left;spacingLeft=6;overflow=hidden;" vertex="1" parent="M4OL5w7zwPGJeYNhAJbC-34">
          <mxGeometry x="30" width="140" height="30" as="geometry" />
        </mxCell>
        <mxCell id="M4OL5w7zwPGJeYNhAJbC-37" value="" style="shape=partialRectangle;collapsible=0;dropTarget=0;pointerEvents=0;fillColor=none;top=0;left=0;bottom=0;right=0;points=[[0,0.5],[1,0.5]];portConstraint=eastwest;" vertex="1" parent="M4OL5w7zwPGJeYNhAJbC-27">
          <mxGeometry y="120" width="170" height="30" as="geometry" />
        </mxCell>
        <mxCell id="M4OL5w7zwPGJeYNhAJbC-38" value="" style="shape=partialRectangle;connectable=0;fillColor=none;top=0;left=0;bottom=0;right=0;editable=1;overflow=hidden;" vertex="1" parent="M4OL5w7zwPGJeYNhAJbC-37">
          <mxGeometry width="30" height="30" as="geometry" />
        </mxCell>
        <mxCell id="M4OL5w7zwPGJeYNhAJbC-39" value="Gender" style="shape=partialRectangle;connectable=0;fillColor=none;top=0;left=0;bottom=0;right=0;align=left;spacingLeft=6;overflow=hidden;" vertex="1" parent="M4OL5w7zwPGJeYNhAJbC-37">
          <mxGeometry x="30" width="140" height="30" as="geometry" />
        </mxCell>
        <mxCell id="M4OL5w7zwPGJeYNhAJbC-40" value="" style="shape=partialRectangle;collapsible=0;dropTarget=0;pointerEvents=0;fillColor=none;top=0;left=0;bottom=0;right=0;points=[[0,0.5],[1,0.5]];portConstraint=eastwest;strokeColor=#000000;" vertex="1" parent="M4OL5w7zwPGJeYNhAJbC-27">
          <mxGeometry y="150" width="170" height="30" as="geometry" />
        </mxCell>
        <mxCell id="M4OL5w7zwPGJeYNhAJbC-41" value="" style="shape=partialRectangle;connectable=0;fillColor=none;top=0;left=0;bottom=0;right=0;editable=1;overflow=hidden;" vertex="1" parent="M4OL5w7zwPGJeYNhAJbC-40">
          <mxGeometry width="30" height="30" as="geometry" />
        </mxCell>
        <mxCell id="M4OL5w7zwPGJeYNhAJbC-42" value="Balance" style="shape=partialRectangle;connectable=0;fillColor=none;top=0;left=0;bottom=0;right=0;align=left;spacingLeft=6;overflow=hidden;" vertex="1" parent="M4OL5w7zwPGJeYNhAJbC-40">
          <mxGeometry x="30" width="140" height="30" as="geometry" />
        </mxCell>
        <mxCell id="M4OL5w7zwPGJeYNhAJbC-43" value="" style="shape=partialRectangle;collapsible=0;dropTarget=0;pointerEvents=0;fillColor=none;top=0;left=0;bottom=0;right=0;points=[[0,0.5],[1,0.5]];portConstraint=eastwest;strokeColor=#000000;" vertex="1" parent="M4OL5w7zwPGJeYNhAJbC-27">
          <mxGeometry y="180" width="170" height="30" as="geometry" />
        </mxCell>
        <mxCell id="M4OL5w7zwPGJeYNhAJbC-44" value="" style="shape=partialRectangle;connectable=0;fillColor=none;top=0;left=0;bottom=0;right=0;editable=1;overflow=hidden;" vertex="1" parent="M4OL5w7zwPGJeYNhAJbC-43">
          <mxGeometry width="30" height="30" as="geometry" />
        </mxCell>
        <mxCell id="M4OL5w7zwPGJeYNhAJbC-45" value="Status" style="shape=partialRectangle;connectable=0;fillColor=none;top=0;left=0;bottom=0;right=0;align=left;spacingLeft=6;overflow=hidden;" vertex="1" parent="M4OL5w7zwPGJeYNhAJbC-43">
          <mxGeometry x="30" width="140" height="30" as="geometry" />
        </mxCell>
        <mxCell id="M4OL5w7zwPGJeYNhAJbC-58" value="" style="shape=partialRectangle;collapsible=0;dropTarget=0;pointerEvents=0;fillColor=none;top=0;left=0;bottom=0;right=0;points=[[0,0.5],[1,0.5]];portConstraint=eastwest;strokeColor=#000000;" vertex="1" parent="M4OL5w7zwPGJeYNhAJbC-27">
          <mxGeometry y="210" width="170" height="30" as="geometry" />
        </mxCell>
        <mxCell id="M4OL5w7zwPGJeYNhAJbC-59" value="FK" style="shape=partialRectangle;connectable=0;fillColor=none;top=0;left=0;bottom=0;right=0;fontStyle=0;overflow=hidden;" vertex="1" parent="M4OL5w7zwPGJeYNhAJbC-58">
          <mxGeometry width="30" height="30" as="geometry" />
        </mxCell>
        <mxCell id="M4OL5w7zwPGJeYNhAJbC-60" value="Merch ID" style="shape=partialRectangle;connectable=0;fillColor=none;top=0;left=0;bottom=0;right=0;align=left;spacingLeft=6;fontStyle=0;overflow=hidden;" vertex="1" parent="M4OL5w7zwPGJeYNhAJbC-58">
          <mxGeometry x="30" width="140" height="30" as="geometry" />
        </mxCell>
        <mxCell id="M4OL5w7zwPGJeYNhAJbC-94" value="" style="shape=partialRectangle;collapsible=0;dropTarget=0;pointerEvents=0;fillColor=none;top=0;left=0;bottom=0;right=0;points=[[0,0.5],[1,0.5]];portConstraint=eastwest;strokeColor=#000000;" vertex="1" parent="M4OL5w7zwPGJeYNhAJbC-27">
          <mxGeometry y="240" width="170" height="30" as="geometry" />
        </mxCell>
        <mxCell id="M4OL5w7zwPGJeYNhAJbC-95" value="FK" style="shape=partialRectangle;connectable=0;fillColor=none;top=0;left=0;bottom=0;right=0;fontStyle=0;overflow=hidden;" vertex="1" parent="M4OL5w7zwPGJeYNhAJbC-94">
          <mxGeometry width="30" height="30" as="geometry" />
        </mxCell>
        <mxCell id="M4OL5w7zwPGJeYNhAJbC-96" value="Squish ID" style="shape=partialRectangle;connectable=0;fillColor=none;top=0;left=0;bottom=0;right=0;align=left;spacingLeft=6;fontStyle=0;overflow=hidden;" vertex="1" parent="M4OL5w7zwPGJeYNhAJbC-94">
          <mxGeometry x="30" width="140" height="30" as="geometry" />
        </mxCell>
        <mxCell id="M4OL5w7zwPGJeYNhAJbC-62" value="Merch.Store" style="shape=table;startSize=30;container=1;collapsible=1;childLayout=tableLayout;fixedRows=1;rowLines=0;fontStyle=1;align=center;resizeLast=1;strokeColor=#000000;" vertex="1" parent="1">
          <mxGeometry x="1020" y="1170" width="190" height="210" as="geometry" />
        </mxCell>
        <mxCell id="M4OL5w7zwPGJeYNhAJbC-63" value="" style="shape=partialRectangle;collapsible=0;dropTarget=0;pointerEvents=0;fillColor=none;top=0;left=0;bottom=1;right=0;points=[[0,0.5],[1,0.5]];portConstraint=eastwest;" vertex="1" parent="M4OL5w7zwPGJeYNhAJbC-62">
          <mxGeometry y="30" width="190" height="30" as="geometry" />
        </mxCell>
        <mxCell id="M4OL5w7zwPGJeYNhAJbC-64" value="PK" style="shape=partialRectangle;connectable=0;fillColor=none;top=0;left=0;bottom=0;right=0;fontStyle=1;overflow=hidden;" vertex="1" parent="M4OL5w7zwPGJeYNhAJbC-63">
          <mxGeometry width="30" height="30" as="geometry" />
        </mxCell>
        <mxCell id="M4OL5w7zwPGJeYNhAJbC-65" value="Merch ID" style="shape=partialRectangle;connectable=0;fillColor=none;top=0;left=0;bottom=0;right=0;align=left;spacingLeft=6;fontStyle=5;overflow=hidden;" vertex="1" parent="M4OL5w7zwPGJeYNhAJbC-63">
          <mxGeometry x="30" width="160" height="30" as="geometry" />
        </mxCell>
        <mxCell id="M4OL5w7zwPGJeYNhAJbC-66" value="" style="shape=partialRectangle;collapsible=0;dropTarget=0;pointerEvents=0;fillColor=none;top=0;left=0;bottom=0;right=0;points=[[0,0.5],[1,0.5]];portConstraint=eastwest;" vertex="1" parent="M4OL5w7zwPGJeYNhAJbC-62">
          <mxGeometry y="60" width="190" height="30" as="geometry" />
        </mxCell>
        <mxCell id="M4OL5w7zwPGJeYNhAJbC-67" value="" style="shape=partialRectangle;connectable=0;fillColor=none;top=0;left=0;bottom=0;right=0;editable=1;overflow=hidden;" vertex="1" parent="M4OL5w7zwPGJeYNhAJbC-66">
          <mxGeometry width="30" height="30" as="geometry" />
        </mxCell>
        <mxCell id="M4OL5w7zwPGJeYNhAJbC-68" value="Price" style="shape=partialRectangle;connectable=0;fillColor=none;top=0;left=0;bottom=0;right=0;align=left;spacingLeft=6;overflow=hidden;" vertex="1" parent="M4OL5w7zwPGJeYNhAJbC-66">
          <mxGeometry x="30" width="160" height="30" as="geometry" />
        </mxCell>
        <mxCell id="M4OL5w7zwPGJeYNhAJbC-69" value="" style="shape=partialRectangle;collapsible=0;dropTarget=0;pointerEvents=0;fillColor=none;top=0;left=0;bottom=0;right=0;points=[[0,0.5],[1,0.5]];portConstraint=eastwest;" vertex="1" parent="M4OL5w7zwPGJeYNhAJbC-62">
          <mxGeometry y="90" width="190" height="30" as="geometry" />
        </mxCell>
        <mxCell id="M4OL5w7zwPGJeYNhAJbC-70" value="" style="shape=partialRectangle;connectable=0;fillColor=none;top=0;left=0;bottom=0;right=0;editable=1;overflow=hidden;" vertex="1" parent="M4OL5w7zwPGJeYNhAJbC-69">
          <mxGeometry width="30" height="30" as="geometry" />
        </mxCell>
        <mxCell id="M4OL5w7zwPGJeYNhAJbC-71" value="Release Date" style="shape=partialRectangle;connectable=0;fillColor=none;top=0;left=0;bottom=0;right=0;align=left;spacingLeft=6;overflow=hidden;" vertex="1" parent="M4OL5w7zwPGJeYNhAJbC-69">
          <mxGeometry x="30" width="160" height="30" as="geometry" />
        </mxCell>
        <mxCell id="M4OL5w7zwPGJeYNhAJbC-72" value="" style="shape=partialRectangle;collapsible=0;dropTarget=0;pointerEvents=0;fillColor=none;top=0;left=0;bottom=0;right=0;points=[[0,0.5],[1,0.5]];portConstraint=eastwest;" vertex="1" parent="M4OL5w7zwPGJeYNhAJbC-62">
          <mxGeometry y="120" width="190" height="30" as="geometry" />
        </mxCell>
        <mxCell id="M4OL5w7zwPGJeYNhAJbC-73" value="" style="shape=partialRectangle;connectable=0;fillColor=none;top=0;left=0;bottom=0;right=0;editable=1;overflow=hidden;" vertex="1" parent="M4OL5w7zwPGJeYNhAJbC-72">
          <mxGeometry width="30" height="30" as="geometry" />
        </mxCell>
        <mxCell id="M4OL5w7zwPGJeYNhAJbC-74" value="Stock" style="shape=partialRectangle;connectable=0;fillColor=none;top=0;left=0;bottom=0;right=0;align=left;spacingLeft=6;overflow=hidden;" vertex="1" parent="M4OL5w7zwPGJeYNhAJbC-72">
          <mxGeometry x="30" width="160" height="30" as="geometry" />
        </mxCell>
        <mxCell id="M4OL5w7zwPGJeYNhAJbC-75" value="" style="shape=partialRectangle;collapsible=0;dropTarget=0;pointerEvents=0;fillColor=none;top=0;left=0;bottom=0;right=0;points=[[0,0.5],[1,0.5]];portConstraint=eastwest;strokeColor=#000000;" vertex="1" parent="M4OL5w7zwPGJeYNhAJbC-62">
          <mxGeometry y="150" width="190" height="30" as="geometry" />
        </mxCell>
        <mxCell id="M4OL5w7zwPGJeYNhAJbC-76" value="" style="shape=partialRectangle;connectable=0;fillColor=none;top=0;left=0;bottom=0;right=0;editable=1;overflow=hidden;" vertex="1" parent="M4OL5w7zwPGJeYNhAJbC-75">
          <mxGeometry width="30" height="30" as="geometry" />
        </mxCell>
        <mxCell id="M4OL5w7zwPGJeYNhAJbC-77" value="Buy Limits" style="shape=partialRectangle;connectable=0;fillColor=none;top=0;left=0;bottom=0;right=0;align=left;spacingLeft=6;overflow=hidden;" vertex="1" parent="M4OL5w7zwPGJeYNhAJbC-75">
          <mxGeometry x="30" width="160" height="30" as="geometry" />
        </mxCell>
        <mxCell id="M4OL5w7zwPGJeYNhAJbC-78" value="" style="shape=partialRectangle;collapsible=0;dropTarget=0;pointerEvents=0;fillColor=none;top=0;left=0;bottom=0;right=0;points=[[0,0.5],[1,0.5]];portConstraint=eastwest;strokeColor=#000000;" vertex="1" parent="M4OL5w7zwPGJeYNhAJbC-62">
          <mxGeometry y="180" width="190" height="30" as="geometry" />
        </mxCell>
        <mxCell id="M4OL5w7zwPGJeYNhAJbC-79" value="FK" style="shape=partialRectangle;connectable=0;fillColor=none;top=0;left=0;bottom=0;right=0;fontStyle=0;overflow=hidden;" vertex="1" parent="M4OL5w7zwPGJeYNhAJbC-78">
          <mxGeometry width="30" height="30" as="geometry" />
        </mxCell>
        <mxCell id="M4OL5w7zwPGJeYNhAJbC-80" value="Squish ID" style="shape=partialRectangle;connectable=0;fillColor=none;top=0;left=0;bottom=0;right=0;align=left;spacingLeft=6;fontStyle=0;overflow=hidden;" vertex="1" parent="M4OL5w7zwPGJeYNhAJbC-78">
          <mxGeometry x="30" width="160" height="30" as="geometry" />
        </mxCell>
        <mxCell id="M4OL5w7zwPGJeYNhAJbC-100" value="" style="edgeStyle=entityRelationEdgeStyle;fontSize=12;html=1;endArrow=ERoneToMany;exitX=1;exitY=0.667;exitDx=0;exitDy=0;exitPerimeter=0;entryX=1;entryY=0.5;entryDx=0;entryDy=0;" edge="1" parent="1" source="M4OL5w7zwPGJeYNhAJbC-78" target="M4OL5w7zwPGJeYNhAJbC-7">
          <mxGeometry width="100" height="100" relative="1" as="geometry">
            <mxPoint x="940" y="1300" as="sourcePoint" />
            <mxPoint x="1007" y="1660" as="targetPoint" />
          </mxGeometry>
        </mxCell>
        <mxCell id="M4OL5w7zwPGJeYNhAJbC-101" value="" style="edgeStyle=entityRelationEdgeStyle;fontSize=12;html=1;endArrow=ERoneToMany;exitX=0;exitY=0.5;exitDx=0;exitDy=0;" edge="1" parent="1" source="M4OL5w7zwPGJeYNhAJbC-63" target="M4OL5w7zwPGJeYNhAJbC-27">
          <mxGeometry width="100" height="100" relative="1" as="geometry">
            <mxPoint x="970" y="1550" as="sourcePoint" />
            <mxPoint x="1070" y="1450" as="targetPoint" />
          </mxGeometry>
        </mxCell>
        <mxCell id="M4OL5w7zwPGJeYNhAJbC-102" value="" style="edgeStyle=entityRelationEdgeStyle;fontSize=12;html=1;endArrow=ERoneToMany;exitX=0.996;exitY=-0.024;exitDx=0;exitDy=0;exitPerimeter=0;" edge="1" parent="1" source="M4OL5w7zwPGJeYNhAJbC-94" target="M4OL5w7zwPGJeYNhAJbC-13">
          <mxGeometry width="100" height="100" relative="1" as="geometry">
            <mxPoint x="970" y="1660" as="sourcePoint" />
            <mxPoint x="1008" y="1700" as="targetPoint" />
          </mxGeometry>
        </mxCell>
        <mxCell id="M4OL5w7zwPGJeYNhAJbC-103" value="Viewer" style="shape=table;startSize=30;container=1;collapsible=1;childLayout=tableLayout;fixedRows=1;rowLines=0;fontStyle=1;align=center;resizeLast=1;strokeColor=#000000;" vertex="1" parent="1">
          <mxGeometry x="650" y="1010" width="180" height="240" as="geometry" />
        </mxCell>
        <mxCell id="M4OL5w7zwPGJeYNhAJbC-104" value="" style="shape=partialRectangle;collapsible=0;dropTarget=0;pointerEvents=0;fillColor=none;top=0;left=0;bottom=1;right=0;points=[[0,0.5],[1,0.5]];portConstraint=eastwest;" vertex="1" parent="M4OL5w7zwPGJeYNhAJbC-103">
          <mxGeometry y="30" width="180" height="30" as="geometry" />
        </mxCell>
        <mxCell id="M4OL5w7zwPGJeYNhAJbC-105" value="PK" style="shape=partialRectangle;connectable=0;fillColor=none;top=0;left=0;bottom=0;right=0;fontStyle=1;overflow=hidden;" vertex="1" parent="M4OL5w7zwPGJeYNhAJbC-104">
          <mxGeometry width="30" height="30" as="geometry" />
        </mxCell>
        <mxCell id="M4OL5w7zwPGJeYNhAJbC-106" value="Viewer ID" style="shape=partialRectangle;connectable=0;fillColor=none;top=0;left=0;bottom=0;right=0;align=left;spacingLeft=6;fontStyle=5;overflow=hidden;" vertex="1" parent="M4OL5w7zwPGJeYNhAJbC-104">
          <mxGeometry x="30" width="150" height="30" as="geometry" />
        </mxCell>
        <mxCell id="M4OL5w7zwPGJeYNhAJbC-107" value="" style="shape=partialRectangle;collapsible=0;dropTarget=0;pointerEvents=0;fillColor=none;top=0;left=0;bottom=0;right=0;points=[[0,0.5],[1,0.5]];portConstraint=eastwest;" vertex="1" parent="M4OL5w7zwPGJeYNhAJbC-103">
          <mxGeometry y="60" width="180" height="30" as="geometry" />
        </mxCell>
        <mxCell id="M4OL5w7zwPGJeYNhAJbC-108" value="" style="shape=partialRectangle;connectable=0;fillColor=none;top=0;left=0;bottom=0;right=0;editable=1;overflow=hidden;" vertex="1" parent="M4OL5w7zwPGJeYNhAJbC-107">
          <mxGeometry width="30" height="30" as="geometry" />
        </mxCell>
        <mxCell id="M4OL5w7zwPGJeYNhAJbC-109" value="Viewer Username" style="shape=partialRectangle;connectable=0;fillColor=none;top=0;left=0;bottom=0;right=0;align=left;spacingLeft=6;overflow=hidden;" vertex="1" parent="M4OL5w7zwPGJeYNhAJbC-107">
          <mxGeometry x="30" width="150" height="30" as="geometry" />
        </mxCell>
        <mxCell id="M4OL5w7zwPGJeYNhAJbC-110" value="" style="shape=partialRectangle;collapsible=0;dropTarget=0;pointerEvents=0;fillColor=none;top=0;left=0;bottom=0;right=0;points=[[0,0.5],[1,0.5]];portConstraint=eastwest;" vertex="1" parent="M4OL5w7zwPGJeYNhAJbC-103">
          <mxGeometry y="90" width="180" height="30" as="geometry" />
        </mxCell>
        <mxCell id="M4OL5w7zwPGJeYNhAJbC-111" value="" style="shape=partialRectangle;connectable=0;fillColor=none;top=0;left=0;bottom=0;right=0;editable=1;overflow=hidden;" vertex="1" parent="M4OL5w7zwPGJeYNhAJbC-110">
          <mxGeometry width="30" height="30" as="geometry" />
        </mxCell>
        <mxCell id="M4OL5w7zwPGJeYNhAJbC-112" value="Watch Time " style="shape=partialRectangle;connectable=0;fillColor=none;top=0;left=0;bottom=0;right=0;align=left;spacingLeft=6;overflow=hidden;" vertex="1" parent="M4OL5w7zwPGJeYNhAJbC-110">
          <mxGeometry x="30" width="150" height="30" as="geometry" />
        </mxCell>
        <mxCell id="M4OL5w7zwPGJeYNhAJbC-113" value="" style="shape=partialRectangle;collapsible=0;dropTarget=0;pointerEvents=0;fillColor=none;top=0;left=0;bottom=0;right=0;points=[[0,0.5],[1,0.5]];portConstraint=eastwest;" vertex="1" parent="M4OL5w7zwPGJeYNhAJbC-103">
          <mxGeometry y="120" width="180" height="30" as="geometry" />
        </mxCell>
        <mxCell id="M4OL5w7zwPGJeYNhAJbC-114" value="" style="shape=partialRectangle;connectable=0;fillColor=none;top=0;left=0;bottom=0;right=0;editable=1;overflow=hidden;" vertex="1" parent="M4OL5w7zwPGJeYNhAJbC-113">
          <mxGeometry width="30" height="30" as="geometry" />
        </mxCell>
        <mxCell id="M4OL5w7zwPGJeYNhAJbC-115" value="Donate" style="shape=partialRectangle;connectable=0;fillColor=none;top=0;left=0;bottom=0;right=0;align=left;spacingLeft=6;overflow=hidden;" vertex="1" parent="M4OL5w7zwPGJeYNhAJbC-113">
          <mxGeometry x="30" width="150" height="30" as="geometry" />
        </mxCell>
        <mxCell id="M4OL5w7zwPGJeYNhAJbC-120" value="" style="shape=partialRectangle;collapsible=0;dropTarget=0;pointerEvents=0;fillColor=none;top=0;left=0;bottom=0;right=0;points=[[0,0.5],[1,0.5]];portConstraint=eastwest;strokeColor=#000000;" vertex="1" parent="M4OL5w7zwPGJeYNhAJbC-103">
          <mxGeometry y="150" width="180" height="30" as="geometry" />
        </mxCell>
        <mxCell id="M4OL5w7zwPGJeYNhAJbC-121" value="" style="shape=partialRectangle;connectable=0;fillColor=none;top=0;left=0;bottom=0;right=0;editable=1;overflow=hidden;" vertex="1" parent="M4OL5w7zwPGJeYNhAJbC-120">
          <mxGeometry width="30" height="30" as="geometry" />
        </mxCell>
        <mxCell id="M4OL5w7zwPGJeYNhAJbC-122" value="Follow" style="shape=partialRectangle;connectable=0;fillColor=none;top=0;left=0;bottom=0;right=0;align=left;spacingLeft=6;overflow=hidden;" vertex="1" parent="M4OL5w7zwPGJeYNhAJbC-120">
          <mxGeometry x="30" width="150" height="30" as="geometry" />
        </mxCell>
        <mxCell id="M4OL5w7zwPGJeYNhAJbC-127" value="" style="shape=partialRectangle;collapsible=0;dropTarget=0;pointerEvents=0;fillColor=none;top=0;left=0;bottom=0;right=0;points=[[0,0.5],[1,0.5]];portConstraint=eastwest;strokeColor=#000000;" vertex="1" parent="M4OL5w7zwPGJeYNhAJbC-103">
          <mxGeometry y="180" width="180" height="30" as="geometry" />
        </mxCell>
        <mxCell id="M4OL5w7zwPGJeYNhAJbC-128" value="" style="shape=partialRectangle;connectable=0;fillColor=none;top=0;left=0;bottom=0;right=0;editable=1;overflow=hidden;" vertex="1" parent="M4OL5w7zwPGJeYNhAJbC-127">
          <mxGeometry width="30" height="30" as="geometry" />
        </mxCell>
        <mxCell id="M4OL5w7zwPGJeYNhAJbC-129" value="Subscribe " style="shape=partialRectangle;connectable=0;fillColor=none;top=0;left=0;bottom=0;right=0;align=left;spacingLeft=6;overflow=hidden;" vertex="1" parent="M4OL5w7zwPGJeYNhAJbC-127">
          <mxGeometry x="30" width="150" height="30" as="geometry" />
        </mxCell>
        <mxCell id="M4OL5w7zwPGJeYNhAJbC-193" value="" style="shape=partialRectangle;collapsible=0;dropTarget=0;pointerEvents=0;fillColor=none;top=0;left=0;bottom=0;right=0;points=[[0,0.5],[1,0.5]];portConstraint=eastwest;strokeColor=#000000;" vertex="1" parent="M4OL5w7zwPGJeYNhAJbC-103">
          <mxGeometry y="210" width="180" height="30" as="geometry" />
        </mxCell>
        <mxCell id="M4OL5w7zwPGJeYNhAJbC-194" value="FK" style="shape=partialRectangle;connectable=0;fillColor=none;top=0;left=0;bottom=0;right=0;fontStyle=0;overflow=hidden;" vertex="1" parent="M4OL5w7zwPGJeYNhAJbC-193">
          <mxGeometry width="30" height="30" as="geometry" />
        </mxCell>
        <mxCell id="M4OL5w7zwPGJeYNhAJbC-195" value="Streamer ID" style="shape=partialRectangle;connectable=0;fillColor=none;top=0;left=0;bottom=0;right=0;align=left;spacingLeft=6;fontStyle=0;overflow=hidden;" vertex="1" parent="M4OL5w7zwPGJeYNhAJbC-193">
          <mxGeometry x="30" width="150" height="30" as="geometry" />
        </mxCell>
        <mxCell id="M4OL5w7zwPGJeYNhAJbC-133" value="Streamer" style="shape=table;startSize=30;container=1;collapsible=1;childLayout=tableLayout;fixedRows=1;rowLines=0;fontStyle=1;align=center;resizeLast=1;strokeColor=#000000;" vertex="1" parent="1">
          <mxGeometry x="935" y="900" width="180" height="240" as="geometry" />
        </mxCell>
        <mxCell id="M4OL5w7zwPGJeYNhAJbC-134" value="" style="shape=partialRectangle;collapsible=0;dropTarget=0;pointerEvents=0;fillColor=none;top=0;left=0;bottom=1;right=0;points=[[0,0.5],[1,0.5]];portConstraint=eastwest;" vertex="1" parent="M4OL5w7zwPGJeYNhAJbC-133">
          <mxGeometry y="30" width="180" height="30" as="geometry" />
        </mxCell>
        <mxCell id="M4OL5w7zwPGJeYNhAJbC-135" value="PK" style="shape=partialRectangle;connectable=0;fillColor=none;top=0;left=0;bottom=0;right=0;fontStyle=1;overflow=hidden;" vertex="1" parent="M4OL5w7zwPGJeYNhAJbC-134">
          <mxGeometry width="30" height="30" as="geometry" />
        </mxCell>
        <mxCell id="M4OL5w7zwPGJeYNhAJbC-136" value="Streamer ID" style="shape=partialRectangle;connectable=0;fillColor=none;top=0;left=0;bottom=0;right=0;align=left;spacingLeft=6;fontStyle=5;overflow=hidden;" vertex="1" parent="M4OL5w7zwPGJeYNhAJbC-134">
          <mxGeometry x="30" width="150" height="30" as="geometry" />
        </mxCell>
        <mxCell id="M4OL5w7zwPGJeYNhAJbC-137" value="" style="shape=partialRectangle;collapsible=0;dropTarget=0;pointerEvents=0;fillColor=none;top=0;left=0;bottom=0;right=0;points=[[0,0.5],[1,0.5]];portConstraint=eastwest;" vertex="1" parent="M4OL5w7zwPGJeYNhAJbC-133">
          <mxGeometry y="60" width="180" height="30" as="geometry" />
        </mxCell>
        <mxCell id="M4OL5w7zwPGJeYNhAJbC-138" value="" style="shape=partialRectangle;connectable=0;fillColor=none;top=0;left=0;bottom=0;right=0;editable=1;overflow=hidden;" vertex="1" parent="M4OL5w7zwPGJeYNhAJbC-137">
          <mxGeometry width="30" height="30" as="geometry" />
        </mxCell>
        <mxCell id="M4OL5w7zwPGJeYNhAJbC-139" value="Streamer Name" style="shape=partialRectangle;connectable=0;fillColor=none;top=0;left=0;bottom=0;right=0;align=left;spacingLeft=6;overflow=hidden;" vertex="1" parent="M4OL5w7zwPGJeYNhAJbC-137">
          <mxGeometry x="30" width="150" height="30" as="geometry" />
        </mxCell>
        <mxCell id="M4OL5w7zwPGJeYNhAJbC-140" value="" style="shape=partialRectangle;collapsible=0;dropTarget=0;pointerEvents=0;fillColor=none;top=0;left=0;bottom=0;right=0;points=[[0,0.5],[1,0.5]];portConstraint=eastwest;" vertex="1" parent="M4OL5w7zwPGJeYNhAJbC-133">
          <mxGeometry y="90" width="180" height="30" as="geometry" />
        </mxCell>
        <mxCell id="M4OL5w7zwPGJeYNhAJbC-141" value="" style="shape=partialRectangle;connectable=0;fillColor=none;top=0;left=0;bottom=0;right=0;editable=1;overflow=hidden;" vertex="1" parent="M4OL5w7zwPGJeYNhAJbC-140">
          <mxGeometry width="30" height="30" as="geometry" />
        </mxCell>
        <mxCell id="M4OL5w7zwPGJeYNhAJbC-142" value="Follower Count" style="shape=partialRectangle;connectable=0;fillColor=none;top=0;left=0;bottom=0;right=0;align=left;spacingLeft=6;overflow=hidden;" vertex="1" parent="M4OL5w7zwPGJeYNhAJbC-140">
          <mxGeometry x="30" width="150" height="30" as="geometry" />
        </mxCell>
        <mxCell id="M4OL5w7zwPGJeYNhAJbC-143" value="" style="shape=partialRectangle;collapsible=0;dropTarget=0;pointerEvents=0;fillColor=none;top=0;left=0;bottom=0;right=0;points=[[0,0.5],[1,0.5]];portConstraint=eastwest;" vertex="1" parent="M4OL5w7zwPGJeYNhAJbC-133">
          <mxGeometry y="120" width="180" height="30" as="geometry" />
        </mxCell>
        <mxCell id="M4OL5w7zwPGJeYNhAJbC-144" value="" style="shape=partialRectangle;connectable=0;fillColor=none;top=0;left=0;bottom=0;right=0;editable=1;overflow=hidden;" vertex="1" parent="M4OL5w7zwPGJeYNhAJbC-143">
          <mxGeometry width="30" height="30" as="geometry" />
        </mxCell>
        <mxCell id="M4OL5w7zwPGJeYNhAJbC-145" value="Subscriber Count" style="shape=partialRectangle;connectable=0;fillColor=none;top=0;left=0;bottom=0;right=0;align=left;spacingLeft=6;overflow=hidden;" vertex="1" parent="M4OL5w7zwPGJeYNhAJbC-143">
          <mxGeometry x="30" width="150" height="30" as="geometry" />
        </mxCell>
        <mxCell id="M4OL5w7zwPGJeYNhAJbC-150" value="" style="shape=partialRectangle;collapsible=0;dropTarget=0;pointerEvents=0;fillColor=none;top=0;left=0;bottom=0;right=0;points=[[0,0.5],[1,0.5]];portConstraint=eastwest;strokeColor=#000000;" vertex="1" parent="M4OL5w7zwPGJeYNhAJbC-133">
          <mxGeometry y="150" width="180" height="30" as="geometry" />
        </mxCell>
        <mxCell id="M4OL5w7zwPGJeYNhAJbC-151" value="" style="shape=partialRectangle;connectable=0;fillColor=none;top=0;left=0;bottom=0;right=0;editable=1;overflow=hidden;" vertex="1" parent="M4OL5w7zwPGJeYNhAJbC-150">
          <mxGeometry width="30" height="30" as="geometry" />
        </mxCell>
        <mxCell id="M4OL5w7zwPGJeYNhAJbC-152" value="Viewer Count" style="shape=partialRectangle;connectable=0;fillColor=none;top=0;left=0;bottom=0;right=0;align=left;spacingLeft=6;overflow=hidden;" vertex="1" parent="M4OL5w7zwPGJeYNhAJbC-150">
          <mxGeometry x="30" width="150" height="30" as="geometry" />
        </mxCell>
        <mxCell id="M4OL5w7zwPGJeYNhAJbC-153" value="" style="shape=partialRectangle;collapsible=0;dropTarget=0;pointerEvents=0;fillColor=none;top=0;left=0;bottom=0;right=0;points=[[0,0.5],[1,0.5]];portConstraint=eastwest;strokeColor=#000000;" vertex="1" parent="M4OL5w7zwPGJeYNhAJbC-133">
          <mxGeometry y="180" width="180" height="30" as="geometry" />
        </mxCell>
        <mxCell id="M4OL5w7zwPGJeYNhAJbC-154" value="" style="shape=partialRectangle;connectable=0;fillColor=none;top=0;left=0;bottom=0;right=0;editable=1;overflow=hidden;" vertex="1" parent="M4OL5w7zwPGJeYNhAJbC-153">
          <mxGeometry width="30" height="30" as="geometry" />
        </mxCell>
        <mxCell id="M4OL5w7zwPGJeYNhAJbC-155" value="Giveaway" style="shape=partialRectangle;connectable=0;fillColor=none;top=0;left=0;bottom=0;right=0;align=left;spacingLeft=6;overflow=hidden;" vertex="1" parent="M4OL5w7zwPGJeYNhAJbC-153">
          <mxGeometry x="30" width="150" height="30" as="geometry" />
        </mxCell>
        <mxCell id="M4OL5w7zwPGJeYNhAJbC-159" value="" style="shape=partialRectangle;collapsible=0;dropTarget=0;pointerEvents=0;fillColor=none;top=0;left=0;bottom=0;right=0;points=[[0,0.5],[1,0.5]];portConstraint=eastwest;strokeColor=#000000;" vertex="1" parent="M4OL5w7zwPGJeYNhAJbC-133">
          <mxGeometry y="210" width="180" height="30" as="geometry" />
        </mxCell>
        <mxCell id="M4OL5w7zwPGJeYNhAJbC-160" value="FK" style="shape=partialRectangle;connectable=0;fillColor=none;top=0;left=0;bottom=0;right=0;fontStyle=0;overflow=hidden;" vertex="1" parent="M4OL5w7zwPGJeYNhAJbC-159">
          <mxGeometry width="30" height="30" as="geometry" />
        </mxCell>
        <mxCell id="M4OL5w7zwPGJeYNhAJbC-161" value="Merch ID" style="shape=partialRectangle;connectable=0;fillColor=none;top=0;left=0;bottom=0;right=0;align=left;spacingLeft=6;fontStyle=0;overflow=hidden;" vertex="1" parent="M4OL5w7zwPGJeYNhAJbC-159">
          <mxGeometry x="30" width="150" height="30" as="geometry" />
        </mxCell>
        <mxCell id="M4OL5w7zwPGJeYNhAJbC-162" value="Stream" style="shape=table;startSize=30;container=1;collapsible=1;childLayout=tableLayout;fixedRows=1;rowLines=0;fontStyle=1;align=center;resizeLast=1;strokeColor=#000000;" vertex="1" parent="1">
          <mxGeometry x="1260" y="890" width="180" height="180" as="geometry" />
        </mxCell>
        <mxCell id="M4OL5w7zwPGJeYNhAJbC-163" value="" style="shape=partialRectangle;collapsible=0;dropTarget=0;pointerEvents=0;fillColor=none;top=0;left=0;bottom=1;right=0;points=[[0,0.5],[1,0.5]];portConstraint=eastwest;" vertex="1" parent="M4OL5w7zwPGJeYNhAJbC-162">
          <mxGeometry y="30" width="180" height="30" as="geometry" />
        </mxCell>
        <mxCell id="M4OL5w7zwPGJeYNhAJbC-164" value="PK" style="shape=partialRectangle;connectable=0;fillColor=none;top=0;left=0;bottom=0;right=0;fontStyle=1;overflow=hidden;" vertex="1" parent="M4OL5w7zwPGJeYNhAJbC-163">
          <mxGeometry width="30" height="30" as="geometry" />
        </mxCell>
        <mxCell id="M4OL5w7zwPGJeYNhAJbC-165" value="Stream ID" style="shape=partialRectangle;connectable=0;fillColor=none;top=0;left=0;bottom=0;right=0;align=left;spacingLeft=6;fontStyle=5;overflow=hidden;" vertex="1" parent="M4OL5w7zwPGJeYNhAJbC-163">
          <mxGeometry x="30" width="150" height="30" as="geometry" />
        </mxCell>
        <mxCell id="M4OL5w7zwPGJeYNhAJbC-166" value="" style="shape=partialRectangle;collapsible=0;dropTarget=0;pointerEvents=0;fillColor=none;top=0;left=0;bottom=0;right=0;points=[[0,0.5],[1,0.5]];portConstraint=eastwest;" vertex="1" parent="M4OL5w7zwPGJeYNhAJbC-162">
          <mxGeometry y="60" width="180" height="30" as="geometry" />
        </mxCell>
        <mxCell id="M4OL5w7zwPGJeYNhAJbC-167" value="" style="shape=partialRectangle;connectable=0;fillColor=none;top=0;left=0;bottom=0;right=0;editable=1;overflow=hidden;" vertex="1" parent="M4OL5w7zwPGJeYNhAJbC-166">
          <mxGeometry width="30" height="30" as="geometry" />
        </mxCell>
        <mxCell id="M4OL5w7zwPGJeYNhAJbC-168" value="Stream Title" style="shape=partialRectangle;connectable=0;fillColor=none;top=0;left=0;bottom=0;right=0;align=left;spacingLeft=6;overflow=hidden;" vertex="1" parent="M4OL5w7zwPGJeYNhAJbC-166">
          <mxGeometry x="30" width="150" height="30" as="geometry" />
        </mxCell>
        <mxCell id="M4OL5w7zwPGJeYNhAJbC-169" value="" style="shape=partialRectangle;collapsible=0;dropTarget=0;pointerEvents=0;fillColor=none;top=0;left=0;bottom=0;right=0;points=[[0,0.5],[1,0.5]];portConstraint=eastwest;" vertex="1" parent="M4OL5w7zwPGJeYNhAJbC-162">
          <mxGeometry y="90" width="180" height="30" as="geometry" />
        </mxCell>
        <mxCell id="M4OL5w7zwPGJeYNhAJbC-170" value="" style="shape=partialRectangle;connectable=0;fillColor=none;top=0;left=0;bottom=0;right=0;editable=1;overflow=hidden;" vertex="1" parent="M4OL5w7zwPGJeYNhAJbC-169">
          <mxGeometry width="30" height="30" as="geometry" />
        </mxCell>
        <mxCell id="M4OL5w7zwPGJeYNhAJbC-171" value="Stream Time" style="shape=partialRectangle;connectable=0;fillColor=none;top=0;left=0;bottom=0;right=0;align=left;spacingLeft=6;overflow=hidden;" vertex="1" parent="M4OL5w7zwPGJeYNhAJbC-169">
          <mxGeometry x="30" width="150" height="30" as="geometry" />
        </mxCell>
        <mxCell id="M4OL5w7zwPGJeYNhAJbC-172" value="" style="shape=partialRectangle;collapsible=0;dropTarget=0;pointerEvents=0;fillColor=none;top=0;left=0;bottom=0;right=0;points=[[0,0.5],[1,0.5]];portConstraint=eastwest;" vertex="1" parent="M4OL5w7zwPGJeYNhAJbC-162">
          <mxGeometry y="120" width="180" height="30" as="geometry" />
        </mxCell>
        <mxCell id="M4OL5w7zwPGJeYNhAJbC-173" value="" style="shape=partialRectangle;connectable=0;fillColor=none;top=0;left=0;bottom=0;right=0;editable=1;overflow=hidden;" vertex="1" parent="M4OL5w7zwPGJeYNhAJbC-172">
          <mxGeometry width="30" height="30" as="geometry" />
        </mxCell>
        <mxCell id="M4OL5w7zwPGJeYNhAJbC-174" value="View Count" style="shape=partialRectangle;connectable=0;fillColor=none;top=0;left=0;bottom=0;right=0;align=left;spacingLeft=6;overflow=hidden;" vertex="1" parent="M4OL5w7zwPGJeYNhAJbC-172">
          <mxGeometry x="30" width="150" height="30" as="geometry" />
        </mxCell>
        <mxCell id="M4OL5w7zwPGJeYNhAJbC-183" value="" style="shape=partialRectangle;collapsible=0;dropTarget=0;pointerEvents=0;fillColor=none;top=0;left=0;bottom=0;right=0;points=[[0,0.5],[1,0.5]];portConstraint=eastwest;strokeColor=#000000;" vertex="1" parent="M4OL5w7zwPGJeYNhAJbC-162">
          <mxGeometry y="150" width="180" height="30" as="geometry" />
        </mxCell>
        <mxCell id="M4OL5w7zwPGJeYNhAJbC-184" value="FK" style="shape=partialRectangle;connectable=0;fillColor=none;top=0;left=0;bottom=0;right=0;fontStyle=0;overflow=hidden;" vertex="1" parent="M4OL5w7zwPGJeYNhAJbC-183">
          <mxGeometry width="30" height="30" as="geometry" />
        </mxCell>
        <mxCell id="M4OL5w7zwPGJeYNhAJbC-185" value="Streamer ID" style="shape=partialRectangle;connectable=0;fillColor=none;top=0;left=0;bottom=0;right=0;align=left;spacingLeft=6;fontStyle=0;overflow=hidden;" vertex="1" parent="M4OL5w7zwPGJeYNhAJbC-183">
          <mxGeometry x="30" width="150" height="30" as="geometry" />
        </mxCell>
        <mxCell id="M4OL5w7zwPGJeYNhAJbC-186" value="" style="edgeStyle=entityRelationEdgeStyle;fontSize=12;html=1;endArrow=ERoneToMany;entryX=0;entryY=0.5;entryDx=0;entryDy=0;exitX=0.995;exitY=0.099;exitDx=0;exitDy=0;exitPerimeter=0;" edge="1" parent="1" source="M4OL5w7zwPGJeYNhAJbC-133" target="M4OL5w7zwPGJeYNhAJbC-163">
          <mxGeometry width="100" height="100" relative="1" as="geometry">
            <mxPoint x="1118" y="1055" as="sourcePoint" />
            <mxPoint x="1230" y="960" as="targetPoint" />
          </mxGeometry>
        </mxCell>
        <mxCell id="M4OL5w7zwPGJeYNhAJbC-188" value="" style="edgeStyle=entityRelationEdgeStyle;fontSize=12;html=1;endArrow=ERmandOne;startArrow=ERmandOne;entryX=1;entryY=0.767;entryDx=0;entryDy=0;entryPerimeter=0;" edge="1" parent="1" source="M4OL5w7zwPGJeYNhAJbC-63" target="M4OL5w7zwPGJeYNhAJbC-150">
          <mxGeometry width="100" height="100" relative="1" as="geometry">
            <mxPoint x="1210" y="1330" as="sourcePoint" />
            <mxPoint x="1170" y="1090" as="targetPoint" />
          </mxGeometry>
        </mxCell>
        <mxCell id="M4OL5w7zwPGJeYNhAJbC-192" value="" style="edgeStyle=entityRelationEdgeStyle;fontSize=12;html=1;endArrow=ERoneToMany;entryX=1;entryY=0.5;entryDx=0;entryDy=0;exitX=-0.005;exitY=0.072;exitDx=0;exitDy=0;exitPerimeter=0;" edge="1" parent="1" source="M4OL5w7zwPGJeYNhAJbC-140" target="M4OL5w7zwPGJeYNhAJbC-104">
          <mxGeometry width="100" height="100" relative="1" as="geometry">
            <mxPoint x="1124.1000000000004" y="933.76" as="sourcePoint" />
            <mxPoint x="1270" y="1025" as="targetPoint" />
          </mxGeometry>
        </mxCell>
      </root>
    </mxGraphModel>
  </diagram>
</mxfile>
